<svg height="207" viewBox="0 0 392 207" width="392" xmlns="http://www.w3.org/2000/svg"><path d="m275 4098c0-2.01362.036039-4.00283.107968-5.96755l-1.998661-.07318c-.072826 1.98923-.109307 4.00283-.109307 6.04073zm.60527-13.90402c.179017-1.99824.397598-3.969.655551-5.9122l-1.982607-.26319c-.261711 1.97151-.483425 3.97052-.664966 5.99694zm1.938719-13.75231c.385018-1.96654.81337-3.90215 1.284809-5.80671l-1.941408-.48056c-.479372 1.93661-.914829 3.90432-1.306138 5.903zm3.466659-13.46639c.615246-1.89983 1.27704-3.76541 1.98507-5.59664l-1.86542-.72125c-.721478 1.866-1.395701 3.76662-2.022364 5.7017zm5.1228-12.86287c.860425-1.79501 1.769628-3.55296 2.727227-5.27372l-1.747614-.97254c-.977352 1.75625-1.905191 3.55023-2.783121 5.38176zm6.875701-12.04884c1.104485-1.64485 2.258189-3.25095 3.460668-4.81817l-1.586753-1.21747c-1.228091 1.60061-2.406358 3.24091-3.534316 4.92071zm8.530228-10.88001c1.330438-1.46183 2.70877-2.88446 4.134494-4.26775l-1.392692-1.43541c-1.455382 1.41207-2.862542 2.86445-4.220924 4.35698zm10.027156-9.53982c1.518377-1.25311 3.081355-2.4681 4.688394-3.64482l-1.18157-1.61366c-1.638089 1.19946-3.231574 2.43816-4.779866 3.71596zm11.281807-8.10464c1.668131-1.04157 3.376631-2.04691 5.124938-3.0159l-.969535-1.74929c-1.778519.98574-3.516939 2.00868-5.214663 3.06873zm12.220301-6.6465c1.778934-.83888 3.593602-1.64393 5.443438-2.41507l-.769551-1.84602c-1.877789.78279-3.720292 1.60019-5.526922 2.45213zm12.886039-5.26841c1.856429-.65253 3.74403-1.27383 5.662248-1.86382l-.587963-1.91162c-1.943323.59771-3.856012 1.22726-5.737504 1.8886zm13.336814-4.01603c1.907481-.48526 3.841907-.94182 5.802743-1.36965l-.426343-1.95403c-1.983051.43268-3.939726.89449-5.869489 1.38542zm13.581211-2.89217c1.941527-.33793 3.9063-.64945 5.89381-.93455l-.283985-1.97974c-2.007109.28791-3.991539.60255-5.952779.94391zm13.772108-1.91384c1.962522-.20747 3.945058-.39058 5.94712-.54936l-.158112-1.99374c-2.019381.16015-4.0193.34487-5.99927.55419zm13.880492-1.04643c1.974684-.09168 3.966576-.16082 5.975213-.20743l-.046405-1.99946c-2.024022.04697-4.031364.11664-6.021561.20904zm13.947934-.27481c1.978577.01184 3.971892.0446 5.979505.09823l.053403-1.99929c-2.021363-.05399-4.028487-.08698-6.020932-.09891zm13.948835.41668c1.977769.10476 3.968125.22898 5.970645.37263l.143096-1.99488c-2.014904-.14453-4.017697-.26953-6.007958-.37495zm13.941238 1.04075c1.97231.1888 3.955298.39578 5.948566.62087l.224428-1.98737c-2.004503-.22636-3.998775-.43452-5.982416-.6244zm13.868628 1.60329c1.965622.26538 3.940254.54781 5.923512.84724l.298568-1.97759c-1.993542-.30098-3.978499-.58489-5.95449-.85167zm13.809822 2.11962c1.956929.33578 3.921377.68763 5.892977 1.05546l.366798-1.96608c-1.981084-.3696-3.955052-.72315-5.92154-1.06058zm13.751041 2.59831c1.946108.40095 3.898387.81706 5.85649 1.24823l.430095-1.95321c-1.966908-.43311-3.928027-.8511-5.883007-1.25388zm13.650076 3.03663c1.933013.46136 3.870976.93704 5.813553 1.42695l.489082-1.93928c-1.950807-.49199-3.897028-.96969-5.838331-1.43303zm13.5358 3.44293c1.919955.51814 3.84375 1.04986 5.771067 1.59508l.544417-1.92447c-1.935062-.54741-3.86663-1.08129-5.794383-1.60153zm13.463161 3.83717c1.905773.57179 3.814365 1.15648 5.725473 1.754l.596816-1.90888c-1.918439-.59981-3.834388-1.18676-5.747541-1.76076zm13.33742 4.19692c1.941659.63493 3.861461 1.23743 5.759462 1.80766l.575466-1.91542c-1.882465-.56556-3.786885-1.16323-5.713309-1.79318zm13.488788 3.98351c1.977673.51817 3.929953.9992 5.856909 1.44332l.44918-1.9489c-1.907515-.43965-3.840555-.91593-5.799181-1.42911zm13.725352 3.07823c2.012431.37089 3.994915.69874 5.94754.98386l.288973-1.97901c-1.927867-.28151-3.885846-.6053-5.874019-.97172zm13.97117 1.93078c2.046399.18185 4.056719.31296 6.031071.39377l.08179-1.99832c-1.942318-.0795-3.920889-.20854-5.935828-.3876zm14.117203.43841c2.062074-.06525 4.08014-.19067 6.054329-.37563l-.186559-1.99128c-1.932871.18108-3.909824.30396-5.931022.36791zm14.076071-1.49848c2.028999-.38368 4.004579-.83762 5.926872-1.36084l-.525262-1.9298c-1.87126.50933-3.795586.9515-5.773224 1.32547zm13.607921-3.93109c1.909538-.76744 3.75619-1.61303 5.540082-2.53527l-.918478-1.77662c-1.727484.89307-3.516514 1.71227-5.367421 2.45615zm12.520012-6.75447c1.672655-1.17209 3.2761-2.42341 4.810492-3.7518l-1.309067-1.51207c-1.482936 1.28385-3.032546 2.49315-4.649161 3.62598zm10.606748-9.50196c1.338097-1.51837 2.60665-3.1079 3.80589-4.76586l-1.620514-1.17215c-1.161938 1.60639-2.39048 3.14578-3.685858 4.61568zm8.169192-11.64049c.975058-1.75658 1.885113-3.57025 2.73043-5.43781l-1.822045-.82472c-.823075 1.81843-1.708699 3.58341-2.657048 5.29188zm5.692834-12.96868c.642162-1.89731 1.225159-3.83602 1.749291-5.81233l-1.93317-.51269c-.512776 1.93348-1.082888 3.82935-1.710555 5.68383zm3.494856-13.69938c.354212-1.97187.654254-3.96913.900567-5.98697l-1.985264-.24233c-.241806 1.98092-.536275 3.94108-.883796 5.87569zm1.592949-14.01755c.103247-2.01069.1555-4.02921.157579-6.04903l-1.999999-.00205c-.002044 1.98648-.05343 3.97149-.154948 5.94851zm-.100791-14.13081c-.131709-2.02677-.313021-4.03803-.542198-6.02426l-1.986818.22924c.225358 1.95315.403679 3.93122.533225 5.92472zm-1.749316-14.02095c-.382637-2.03387-.815661-4.01235-1.295007-5.9204l-1.939725.4873c.469476 1.86877.893924 3.80806 1.269214 5.80288zm-3.641432-13.67733c-.737722-2.04182-1.529928-3.92812-2.365558-5.63224l-1.795725.88055c.802415 1.63638 1.566535 3.45581 2.280293 5.43131z" fill="#3f4348" transform="translate(-273 -3891)"/></svg>